<svg width="202" height="39" viewBox="0 0 202 39" fill="none" xmlns="http://www.w3.org/2000/svg">
<path d="M16.043 26.8064C13.8667 25.998 11.6281 25.8737 9.57614 26.4333C8.14596 26.8064 6.77796 27.5526 5.53432 28.4853L4.66376 29.2315L4.41504 29.4802L4.97467 29.9777C5.03685 29.9777 5.03686 30.0399 5.09904 30.102C5.22341 30.2264 5.34778 30.2886 5.53432 30.4129L5.9074 30.6617L6.28049 30.3508C6.34268 30.2886 6.46704 30.1642 6.5914 30.102C7.71068 29.1693 8.95431 28.5475 10.2601 28.2366C11.939 27.8013 13.7423 27.8635 15.5456 28.5475C17.0379 29.1071 20.0849 29.7911 23.7536 28.2366L23.878 28.1744L24.0645 27.9879C24.0645 27.9257 24.1267 27.9257 24.1889 27.8635C24.4998 27.4904 24.8107 27.1173 25.0594 26.682L26.303 24.7544L24.3132 25.8737C21.3907 27.4904 18.7169 27.8013 16.043 26.8064Z" fill="#55B02E"/>
<path d="M7.52364 20.0906C9.20255 19.6553 11.0058 19.7175 12.8091 20.4015C14.7989 21.1477 19.8978 22.2048 25.6186 17.0437L26.5513 16.111L26.6135 16.0488L26.8622 15.8001L26.7378 15.4891C26.6756 15.2404 26.5513 14.9295 26.4269 14.6186L26.116 13.748L25.4942 14.3699C25.432 14.4942 25.3076 14.5564 25.1833 14.6808C22.4473 17.479 18.2189 20.3393 13.3687 18.5982C11.1924 17.7899 8.95382 17.6655 6.90182 18.2251C4.91201 18.7848 3.17091 19.8419 1.55418 21.3342V21.2721L0.621456 22.267C0.621456 22.3291 0.559286 22.3292 0.497104 22.3913L0.310547 22.5779L0.372732 22.8266C0.434914 23.1375 0.559274 23.4484 0.621456 23.7593L0.994551 24.7542L1.61637 23.9459C1.67855 23.8215 1.80291 23.7593 1.86509 23.635C3.17091 22.4535 4.97419 20.7746 7.52364 20.0906Z" fill="#55B02E"/>
<path d="M1.49238 18.9715C2.92256 17.4792 4.53928 16.5464 6.28037 16.049C7.95928 15.6137 9.76255 15.6759 11.5658 16.3599C17.1622 18.4119 22.0124 15.0541 24.1266 13.2508L24.9349 12.4424L25.2458 12.1937L24.9971 11.8206C24.8106 11.6341 24.6862 11.3854 24.4997 11.1366L24.1266 10.6392L23.6913 11.0744C23.6291 11.1366 23.5047 11.261 23.4426 11.3232C20.8309 13.8104 16.7891 16.3599 12.1876 14.6188C10.0113 13.8104 7.77273 13.6861 5.72074 14.2457C4.41492 14.6188 3.17128 15.2406 1.92764 16.049L0.621818 17.1061C0.497455 17.2304 0.435273 17.2926 0.310909 17.417L0.186557 17.5413V17.7279C0.124375 18.1632 0.124367 18.5984 0.0621856 18.9715L0 20.5261L1.0571 19.4068C1.18146 19.2824 1.30583 19.0959 1.49238 18.9715Z" fill="#55B02E"/>
<path d="M17.8466 31.0349L17.7222 31.408L17.8466 31.0349C17.66 30.9727 17.5357 30.9105 17.3491 30.8483C15.1728 30.04 12.9342 29.9156 10.8822 30.4753C10.4469 30.5996 10.0117 30.724 9.57639 30.9105L8.08401 31.5945L7.71094 31.7811L8.95457 32.2163C9.32766 32.3407 9.70075 32.4651 10.0738 32.5894L10.2604 32.6516L10.4469 32.5894C10.6335 32.5273 10.82 32.4029 11.0066 32.4029C11.1309 32.4029 11.2553 32.3407 11.3797 32.2785C12.872 31.9054 14.4887 31.9054 16.2298 32.4651C16.4164 32.5272 16.5408 32.5894 16.7273 32.6516L17.0382 32.776L17.2247 32.7138C17.66 32.5894 18.1575 32.4651 18.5306 32.2785L20.2717 31.6567L18.4684 31.2214C18.2818 31.1592 18.0331 31.0971 17.8466 31.0349Z" fill="#55B02E"/>
<path d="M27.3597 18.1631L26.427 19.0958C26.3027 19.2202 26.1783 19.3445 26.0539 19.4689C23.5045 21.894 19.4005 24.5056 14.799 22.7645C12.6227 21.9562 10.3841 21.8318 8.33213 22.3915C6.40449 22.9511 4.66338 23.946 3.10884 25.4384L2.30048 26.3089L2.05176 26.6198L2.30048 26.9929C2.48703 27.2416 2.6114 27.4282 2.73576 27.6769L3.10884 28.2365L3.54412 27.6769C3.6063 27.6147 3.73066 27.4904 3.79284 27.4282C5.2852 25.8114 6.90193 24.8165 8.76739 24.3191C10.4463 23.8838 12.2496 23.946 14.0528 24.63C15.6074 25.1896 17.2241 25.3762 18.8408 25.1896C21.7012 24.8787 24.5616 23.262 26.6758 21.4587C26.8001 21.3344 26.9245 21.2722 27.0488 21.1478L27.2354 20.9613V20.7747C27.2354 20.4016 27.2976 19.9664 27.2976 19.5933L27.3597 18.1631Z" fill="#55B02E"/>
<path d="M3.73045 12.4423L3.54391 12.0692L3.73045 12.4423C4.10354 12.2557 4.53883 12.1313 4.91192 12.007C6.59083 11.5717 8.3941 11.6339 10.1974 12.3179C11.3788 12.7532 12.5603 12.9397 13.8661 12.9397C16.4777 12.9397 19.0894 12.007 21.5145 10.2037L22.4472 9.45752L22.7581 9.20879L22.1985 8.77351C22.0119 8.58697 21.7632 8.40043 21.5145 8.27607L21.1414 8.02734L20.8305 8.27607C20.7061 8.33825 20.6439 8.46261 20.5195 8.52479C17.2239 11.0121 13.9283 11.6961 10.8192 10.5146C8.58065 9.70625 6.34209 9.51971 4.10355 10.2037C3.917 10.2659 3.73045 10.3281 3.48173 10.3902L3.35738 10.4524L3.17082 10.639C3.17082 10.7012 3.10865 10.7012 3.04647 10.7633C2.79774 11.1364 2.48682 11.4473 2.23809 11.8204L1.05664 13.6237L2.98428 12.6288C3.29519 12.6288 3.54391 12.5044 3.73045 12.4423Z" fill="#55B02E"/>
<path d="M8.82967 8.21393L9.01621 8.27611C9.82457 8.58702 11.0682 8.89793 12.6228 8.89793C14.2395 8.89793 15.794 8.52484 17.3486 7.90302L19.2762 6.97029L17.9704 6.53503C17.5973 6.41067 17.2242 6.2863 16.7889 6.22412H16.6024L16.4159 6.28629C16.2293 6.34847 16.0428 6.47285 15.8562 6.53503C13.9908 7.21903 12.1253 7.34339 10.322 6.84594C10.1355 6.78376 9.94894 6.72156 9.7624 6.65938L9.57586 6.5972L9.3893 6.65938C9.01621 6.78375 8.64313 6.90812 8.27004 7.09466L6.83984 7.71648L8.33222 8.15174C8.45659 8.08956 8.64312 8.15175 8.82967 8.21393Z" fill="#55B02E"/>
<path d="M45.9081 30.28C44.4521 30.28 43.1921 29.9813 42.1281 29.384C41.0641 28.7867 40.2335 27.9373 39.6361 26.836C39.0575 25.7347 38.7681 24.428 38.7681 22.916C38.7681 21.404 39.0575 20.1067 39.6361 19.024C40.2335 17.9227 41.0641 17.0733 42.1281 16.476C43.1921 15.8787 44.4521 15.58 45.9081 15.58C47.3641 15.58 48.6241 15.8787 49.6881 16.476C50.7708 17.0733 51.6015 17.9227 52.1801 19.024C52.7775 20.1067 53.0761 21.404 53.0761 22.916C53.0761 24.428 52.7775 25.7347 52.1801 26.836C51.6015 27.9373 50.7708 28.7867 49.6881 29.384C48.6241 29.9813 47.3641 30.28 45.9081 30.28ZM45.9081 27.592C47.0095 27.592 47.8868 27.2093 48.5401 26.444C49.1935 25.66 49.5201 24.484 49.5201 22.916C49.5201 21.348 49.1935 20.1813 48.5401 19.416C47.8868 18.6507 47.0095 18.268 45.9081 18.268C44.8068 18.268 43.9295 18.6507 43.2761 19.416C42.6228 20.1813 42.2961 21.348 42.2961 22.916C42.2961 24.484 42.6228 25.66 43.2761 26.444C43.9295 27.2093 44.8068 27.592 45.9081 27.592ZM56.0664 30V19.472C56.0664 18.8747 56.0478 18.268 56.0104 17.652C55.9918 17.036 55.9451 16.4387 55.8704 15.86H59.2584L59.6504 19.724H59.0904C59.2771 18.7907 59.5851 18.016 60.0144 17.4C60.4624 16.784 61.0038 16.3267 61.6384 16.028C62.2731 15.7293 62.9638 15.58 63.7104 15.58C64.0464 15.58 64.3171 15.5987 64.5224 15.636C64.7278 15.6547 64.9331 15.7013 65.1384 15.776L65.1104 18.856C64.7558 18.7067 64.4478 18.6133 64.1864 18.576C63.9438 18.5387 63.6358 18.52 63.2624 18.52C62.4598 18.52 61.7784 18.688 61.2184 19.024C60.6771 19.36 60.2664 19.8267 59.9864 20.424C59.7251 21.0213 59.5944 21.7027 59.5944 22.468V30H56.0664ZM73.4199 36.272C72.1132 36.272 70.9279 36.132 69.8639 35.852C68.8185 35.572 67.8852 35.1427 67.0639 34.564L67.8199 32.044C68.3612 32.3987 68.9212 32.688 69.4999 32.912C70.0785 33.136 70.6759 33.304 71.2919 33.416C71.9079 33.528 72.5332 33.584 73.1679 33.584C74.4745 33.584 75.4452 33.2573 76.0799 32.604C76.7332 31.9693 77.0599 31.0547 77.0599 29.86V26.472H77.3399C77.0412 27.4427 76.4345 28.2173 75.5199 28.796C74.6239 29.3747 73.5879 29.664 72.4119 29.664C71.1425 29.664 70.0319 29.384 69.0799 28.824C68.1465 28.2453 67.4185 27.424 66.8959 26.36C66.3732 25.296 66.1119 24.0453 66.1119 22.608C66.1119 21.1707 66.3732 19.9293 66.8959 18.884C67.4185 17.82 68.1465 17.008 69.0799 16.448C70.0319 15.8693 71.1425 15.58 72.4119 15.58C73.6065 15.58 74.6425 15.8693 75.5199 16.448C76.4159 17.008 77.0132 17.7733 77.3119 18.744L77.0599 18.576L77.3399 15.86H80.7279C80.6532 16.4387 80.5972 17.0267 80.5599 17.624C80.5225 18.2213 80.5039 18.8093 80.5039 19.388V29.44C80.5039 31.6613 79.8972 33.3507 78.6839 34.508C77.4892 35.684 75.7345 36.272 73.4199 36.272ZM73.3639 26.976C74.4839 26.976 75.3705 26.6027 76.0239 25.856C76.6959 25.0907 77.0319 24.008 77.0319 22.608C77.0319 21.208 76.6959 20.1347 76.0239 19.388C75.3705 18.6413 74.4839 18.268 73.3639 18.268C72.2252 18.268 71.3199 18.6413 70.6479 19.388C69.9759 20.1347 69.6399 21.208 69.6399 22.608C69.6399 24.008 69.9759 25.0907 70.6479 25.856C71.3199 26.6027 72.2252 26.976 73.3639 26.976ZM89.7458 30.28C88.5138 30.28 87.4312 29.9907 86.4978 29.412C85.5645 28.8147 84.8365 27.9653 84.3138 26.864C83.7912 25.7627 83.5298 24.4467 83.5298 22.916C83.5298 21.3853 83.7912 20.0787 84.3138 18.996C84.8365 17.8947 85.5645 17.0547 86.4978 16.476C87.4312 15.8787 88.5138 15.58 89.7458 15.58C90.9405 15.58 91.9858 15.8787 92.8818 16.476C93.7965 17.0547 94.4032 17.8387 94.7018 18.828H94.3938L94.7018 15.86H98.0618C98.0058 16.4387 97.9498 17.0267 97.8938 17.624C97.8565 18.2213 97.8378 18.8093 97.8378 19.388V30H94.3658L94.3378 27.088H94.6738C94.3752 28.0587 93.7685 28.8333 92.8538 29.412C91.9392 29.9907 90.9032 30.28 89.7458 30.28ZM90.7258 27.592C91.8272 27.592 92.7138 27.2093 93.3858 26.444C94.0578 25.66 94.3938 24.484 94.3938 22.916C94.3938 21.348 94.0578 20.1813 93.3858 19.416C92.7138 18.6507 91.8272 18.268 90.7258 18.268C89.6245 18.268 88.7378 18.6507 88.0658 19.416C87.3938 20.1813 87.0578 21.348 87.0578 22.916C87.0578 24.484 87.3845 25.66 88.0378 26.444C88.7098 27.2093 89.6058 27.592 90.7258 27.592ZM101.649 30V19.388C101.649 18.8093 101.63 18.2213 101.593 17.624C101.556 17.0267 101.5 16.4387 101.425 15.86H104.813L105.093 18.66H104.757C105.205 17.6707 105.868 16.9147 106.745 16.392C107.622 15.8507 108.64 15.58 109.797 15.58C111.458 15.58 112.709 16.0467 113.549 16.98C114.389 17.9133 114.809 19.3693 114.809 21.348V30H111.309V21.516C111.309 20.3773 111.085 19.5653 110.637 19.08C110.208 18.576 109.554 18.324 108.677 18.324C107.594 18.324 106.736 18.66 106.101 19.332C105.466 20.004 105.149 20.9 105.149 22.02V30H101.649ZM118.52 30V15.86H122.02V30H118.52ZM118.324 13.2V9.784H122.216V13.2H118.324ZM125.177 30V27.34L136.237 12.108V13.256H125.177V10.26H139.681V12.892L128.593 28.124V27.004H140.045V30H125.177ZM149.278 30.28C146.907 30.28 145.05 29.6267 143.706 28.32C142.362 27.0133 141.69 25.2213 141.69 22.944C141.69 21.4693 141.979 20.1813 142.558 19.08C143.137 17.9787 143.939 17.12 144.966 16.504C146.011 15.888 147.225 15.58 148.606 15.58C149.969 15.58 151.107 15.8693 152.022 16.448C152.937 17.0267 153.627 17.8387 154.094 18.884C154.579 19.9293 154.822 21.152 154.822 22.552V23.476H144.518V21.628H152.33L151.854 22.02C151.854 20.7133 151.574 19.7147 151.014 19.024C150.473 18.3333 149.679 17.988 148.634 17.988C147.477 17.988 146.581 18.3987 145.946 19.22C145.33 20.0413 145.022 21.1893 145.022 22.664V23.028C145.022 24.5587 145.395 25.7067 146.142 26.472C146.907 27.2187 147.981 27.592 149.362 27.592C150.165 27.592 150.911 27.4893 151.602 27.284C152.311 27.06 152.983 26.7053 153.618 26.22L154.654 28.572C153.982 29.1133 153.179 29.5333 152.246 29.832C151.313 30.1307 150.323 30.28 149.278 30.28ZM157.394 30V26.108H161.314V30H157.394ZM170.109 30.28C168.877 30.28 167.794 29.9907 166.861 29.412C165.928 28.8147 165.2 27.9653 164.677 26.864C164.154 25.7627 163.893 24.4467 163.893 22.916C163.893 21.3853 164.154 20.0787 164.677 18.996C165.2 17.8947 165.928 17.0547 166.861 16.476C167.794 15.8787 168.877 15.58 170.109 15.58C171.304 15.58 172.349 15.8787 173.245 16.476C174.16 17.0547 174.766 17.8387 175.065 18.828H174.757L175.065 15.86H178.425C178.369 16.4387 178.313 17.0267 178.257 17.624C178.22 18.2213 178.201 18.8093 178.201 19.388V30H174.729L174.701 27.088H175.037C174.738 28.0587 174.132 28.8333 173.217 29.412C172.302 29.9907 171.266 30.28 170.109 30.28ZM171.089 27.592C172.19 27.592 173.077 27.2093 173.749 26.444C174.421 25.66 174.757 24.484 174.757 22.916C174.757 21.348 174.421 20.1813 173.749 19.416C173.077 18.6507 172.19 18.268 171.089 18.268C169.988 18.268 169.101 18.6507 168.429 19.416C167.757 20.1813 167.421 21.348 167.421 22.916C167.421 24.484 167.748 25.66 168.401 26.444C169.073 27.2093 169.969 27.592 171.089 27.592ZM182.012 30V15.86H185.512V30H182.012ZM181.816 13.2V9.784H185.708V13.2H181.816Z" fill="white"/>
</svg>
